<?xml version="1.0" encoding="UTF-8"?><svg xmlns="http://www.w3.org/2000/svg" viewBox="0 0 147.88 97.85"><defs><style>.cls-1{fill:#d2d3ea;}.cls-2{fill:#7c81be;}.cls-3{fill:#4b55a5;}</style></defs><g id="Assist"><path class="cls-3" d="M71.48,90.37h-8.19l-3.27,4.83h-5.21l16.67-23.46h4.37l.33,23.46h-4.82l.11-4.83Zm-5.56-3.92h5.66l.22-8.73-5.87,8.73Z"/><path class="cls-3" d="M88.56,90.29c.32-.86-.16-1.48-1.46-1.87l-1.4-.37c-3.3-.96-4.69-2.64-4.17-5.06,.34-1.64,1.31-2.98,2.89-4.02,1.58-1.04,3.36-1.54,5.34-1.52,1.96,.02,3.46,.54,4.49,1.56,1.03,1.02,1.41,2.38,1.13,4.08l-4.51-.02c.28-1.49-.32-2.25-1.82-2.27-.71,0-1.36,.18-1.94,.53-.58,.35-.99,.83-1.21,1.43-.31,.86,.23,1.47,1.63,1.82l.62,.15c1.42,.35,2.48,.76,3.19,1.22,.7,.46,1.21,1.02,1.51,1.7,.3,.68,.36,1.49,.16,2.43-.23,1.11-.76,2.07-1.58,2.9-.83,.83-1.88,1.47-3.14,1.92-1.27,.45-2.55,.66-3.86,.63-1.93-.02-3.44-.58-4.54-1.67s-1.5-2.5-1.22-4.23l4.28,.03c-.25,1.67,.49,2.51,2.23,2.53,.84,0,1.56-.17,2.16-.52,.6-.34,1.01-.81,1.22-1.39Z"/><path class="cls-3" d="M104.51,90.29c.32-.86-.16-1.48-1.46-1.87l-1.4-.37c-3.3-.96-4.69-2.64-4.17-5.06,.34-1.64,1.31-2.98,2.89-4.02,1.58-1.04,3.36-1.54,5.34-1.52,1.96,.02,3.46,.54,4.49,1.56,1.03,1.02,1.41,2.38,1.13,4.08l-4.51-.02c.28-1.49-.32-2.25-1.82-2.27-.71,0-1.36,.18-1.94,.53-.58,.35-.99,.83-1.21,1.43-.31,.86,.23,1.47,1.63,1.82l.62,.15c1.42,.35,2.48,.76,3.19,1.22,.7,.46,1.21,1.02,1.51,1.7,.3,.68,.36,1.49,.16,2.43-.23,1.11-.76,2.07-1.58,2.9-.83,.83-1.88,1.47-3.14,1.92-1.27,.45-2.55,.66-3.86,.63-1.93-.02-3.44-.58-4.54-1.67s-1.5-2.5-1.22-4.23l4.28,.03c-.25,1.67,.49,2.51,2.23,2.53,.84,0,1.56-.17,2.16-.52,.6-.34,1.01-.81,1.22-1.39Z"/><path class="cls-3" d="M114.3,95.21h-4.58l6.1-17.43h4.58l-6.1,17.43Zm2.84-21.87c.11-.72,.45-1.32,1.02-1.79,.58-.47,1.21-.71,1.91-.71,.69-.02,1.25,.19,1.68,.63,.43,.44,.59,1.01,.49,1.71-.1,.67-.42,1.25-.98,1.74s-1.21,.75-1.96,.77c-.68,.02-1.24-.18-1.67-.61s-.6-1.01-.49-1.74Z"/><path class="cls-3" d="M128.46,90.29c.32-.86-.16-1.48-1.46-1.87l-1.4-.37c-3.3-.96-4.69-2.64-4.17-5.06,.34-1.64,1.31-2.98,2.89-4.02,1.58-1.04,3.36-1.54,5.34-1.52,1.96,.02,3.46,.54,4.49,1.56,1.03,1.02,1.41,2.38,1.13,4.08l-4.51-.02c.28-1.49-.32-2.25-1.82-2.27-.71,0-1.36,.18-1.94,.53-.58,.35-.99,.83-1.21,1.43-.31,.86,.23,1.47,1.63,1.82l.62,.15c1.42,.35,2.48,.76,3.19,1.22,.7,.46,1.21,1.02,1.51,1.7,.3,.68,.36,1.49,.16,2.43-.23,1.11-.76,2.07-1.58,2.9-.83,.83-1.88,1.47-3.14,1.92-1.27,.45-2.55,.66-3.86,.63-1.93-.02-3.44-.58-4.54-1.67s-1.5-2.5-1.22-4.23l4.28,.03c-.25,1.67,.49,2.51,2.23,2.53,.84,0,1.56-.17,2.16-.52,.6-.34,1.01-.81,1.22-1.39Z"/><path class="cls-3" d="M146.49,73.49l-1.51,4.29h2.9l-1.2,3.42h-2.9l-3.02,8.73c-.16,.55-.19,.97-.09,1.26,.1,.29,.44,.45,1.01,.47,.17,.01,.63-.02,1.4-.08l-.95,3.56c-.85,.27-1.75,.39-2.68,.37-1.49-.02-2.52-.49-3.09-1.4-.57-.91-.65-2.15-.25-3.71l3.12-9.2h-2.47l1.2-3.42h2.46l1.5-4.29h4.56Z"/></g><g id="Media"><path class="cls-3" d="M72.05,35.87l-.11,16.97,11.74-16.97h6.29l-8.21,23.46h-4.74l2.34-6.69,4.13-10.44-12.01,17.13h-3.24l-.02-17.72-3.55,11.55-2.17,6.17h-4.72l8.21-23.46h6.06Z"/><path class="cls-3" d="M93.26,59.65c-1.52-.01-2.81-.38-3.86-1.12-1.05-.74-1.75-1.75-2.1-3.03-.35-1.28-.33-2.7,.07-4.25l.16-.64c.46-1.7,1.23-3.26,2.31-4.67,1.08-1.42,2.33-2.51,3.77-3.28,1.43-.77,2.94-1.13,4.51-1.09,2.24,.04,3.79,.87,4.66,2.48,.87,1.61,.95,3.65,.24,6.11l-.61,1.98h-10.68c-.24,1.13-.13,2.03,.34,2.71,.47,.68,1.21,1.03,2.23,1.05,1.65,.04,3.21-.6,4.69-1.93l1.62,2.58c-.83,.99-1.91,1.76-3.24,2.31-1.33,.55-2.71,.82-4.12,.8Zm3.98-14.32c-.83-.02-1.62,.24-2.37,.79-.75,.55-1.5,1.5-2.25,2.85h6.25l.17-.42c.14-.43,.22-.84,.23-1.22,0-.62-.18-1.11-.53-1.46s-.86-.53-1.5-.54Z"/><path class="cls-3" d="M113.62,41.56c1.62,.04,2.81,.69,3.59,1.95l3.28-8.93h4.56l-8.65,24.75h-4.06l.59-1.87c-1.57,1.51-3.21,2.25-4.93,2.21-1.08-.01-1.98-.29-2.7-.85-.72-.56-1.21-1.36-1.47-2.41-.26-1.05-.3-2.22-.11-3.5,.09-.68,.22-1.33,.39-1.97l.22-.73c.57-1.78,1.35-3.35,2.32-4.71,.98-1.35,2.05-2.36,3.24-3.01,1.19-.66,2.43-.97,3.73-.93Zm-4.96,9.38c-.23,.82-.38,1.5-.44,2.06-.23,1.89,.37,2.85,1.78,2.89,1.27,.05,2.49-.55,3.65-1.81l2.46-6.93c-.22-1.15-.95-1.75-2.2-1.81-1.1-.03-2.1,.4-2.99,1.28-.89,.89-1.65,2.32-2.27,4.31Z"/><path class="cls-3" d="M124.17,59.33h-4.58l6.1-17.43h4.58l-6.1,17.43Zm2.84-21.87c.11-.72,.45-1.32,1.02-1.79,.58-.47,1.21-.71,1.91-.71,.69-.02,1.25,.19,1.68,.63,.43,.44,.59,1.01,.49,1.71-.1,.67-.42,1.25-.98,1.74-.55,.49-1.21,.75-1.96,.77-.68,.02-1.24-.18-1.67-.61-.43-.43-.6-1.01-.49-1.74Z"/><path class="cls-3" d="M137.45,59.33c-.06-.44-.03-.97,.1-1.58-1.54,1.31-3.14,1.94-4.78,1.9-1.52-.02-2.7-.52-3.53-1.49-.83-.97-1.09-2.17-.77-3.6,.41-1.9,1.46-3.36,3.16-4.38,1.7-1.02,3.83-1.52,6.38-1.52l2.12,.03,.41-1.05c.13-.35,.2-.69,.23-1.02,.04-.5-.09-.9-.36-1.18s-.68-.43-1.22-.44c-.71-.02-1.34,.15-1.9,.52-.56,.37-.97,.91-1.23,1.6l-4.56,.02c.37-1.67,1.37-3.02,3.01-4.05,1.64-1.04,3.52-1.54,5.66-1.52,1.97,.04,3.41,.63,4.33,1.77,.92,1.13,1.13,2.59,.63,4.37l-2.81,8.35-.26,1.03c-.16,.76-.18,1.41-.07,1.93l-.07,.31h-4.46Zm-2.93-3.21c1.3,.04,2.55-.53,3.73-1.71l1.09-3.01-1.58-.02c-1.68,.04-2.98,.55-3.9,1.53-.33,.35-.57,.79-.73,1.31-.19,.58-.15,1.04,.12,1.38,.27,.34,.69,.51,1.25,.52Z"/></g><g id="ICDS"><path class="cls-3" d="M62.54,23.79h-4.72L66.02,.32h4.72l-8.2,23.46Z"/><path class="cls-3" d="M86.86,15.95c-.47,1.62-1.28,3.06-2.42,4.31-1.15,1.25-2.52,2.21-4.12,2.88-1.6,.67-3.26,.99-4.97,.96-1.54-.03-2.83-.39-3.86-1.07s-1.76-1.67-2.19-2.96c-.43-1.29-.54-2.79-.33-4.47,.16-1.32,.58-2.96,1.28-4.93,.7-1.97,1.63-3.71,2.79-5.24s2.45-2.73,3.84-3.63C78.84,.56,80.93-.04,83.16,0c2.42,.04,4.21,.79,5.38,2.25,1.17,1.46,1.59,3.48,1.27,6.07l-4.7-.02c.26-1.48,.16-2.57-.31-3.26-.47-.69-1.32-1.05-2.56-1.1-1.6-.05-3.03,.52-4.28,1.72-1.25,1.2-2.25,2.96-3.02,5.27-.74,2.24-1.19,3.93-1.34,5.04-.2,1.42-.06,2.46,.4,3.13,.46,.67,1.21,1.02,2.25,1.05,1.43,.05,2.64-.29,3.64-1.02,1-.74,1.75-1.79,2.28-3.17l4.69-.03Z"/><path class="cls-3" d="M86.8,23.79L95.01,.32l6.73,.02c1.57,.03,2.93,.39,4.07,1.07,1.14,.68,1.99,1.66,2.55,2.94,.56,1.28,.78,2.72,.66,4.32-.08,.93-.26,1.89-.54,2.87l-.26,.85c-1.08,3.44-2.92,6.2-5.51,8.27-2.59,2.08-5.48,3.12-8.66,3.12h-7.25Zm11.57-19.54l-5.49,15.66,1.96,.02c2.17,0,4.05-.79,5.65-2.38,1.6-1.59,2.78-3.99,3.54-7.2l.12-.52c.34-1.77,.25-3.13-.3-4.08-.54-.95-1.51-1.44-2.91-1.48l-2.58-.02Z"/><path class="cls-3" d="M121.11,17.52c.45-1.28,0-2.25-1.37-2.93l-2.89-1.24c-3.33-1.61-4.65-3.83-3.97-6.66,.3-1.31,.94-2.47,1.9-3.48,.96-1.01,2.2-1.8,3.72-2.38,1.52-.57,3.1-.85,4.74-.83,2.26,.04,3.97,.72,5.14,2.02,1.17,1.31,1.54,3.05,1.14,5.25h-4.71c.24-1.06,.15-1.89-.26-2.48-.42-.59-1.17-.9-2.26-.92-1.07-.02-2.05,.22-2.93,.73-.88,.51-1.48,1.21-1.79,2.1-.41,1.17,.21,2.1,1.86,2.79l1.99,.8,1.12,.56c2.89,1.57,3.99,3.77,3.28,6.61-.34,1.39-1,2.58-1.96,3.59-.97,1-2.18,1.78-3.63,2.31-1.45,.54-2.99,.79-4.62,.76-1.66-.03-3.08-.38-4.26-1.05-1.18-.67-2-1.61-2.47-2.82-.44-1.13-.5-2.42-.21-3.87l4.72,.02c-.6,2.55,.42,3.84,3.07,3.88,1.15,0,2.14-.25,2.97-.76s1.39-1.18,1.68-2.02Z"/></g><g id="__ovals"><ellipse class="cls-3" cx="8.84" cy="83.7" rx="14.93" ry="7.44" transform="translate(-72.2 61) rotate(-68.33)"/><ellipse class="cls-3" cx="28.15" cy="83.7" rx="14.93" ry="7.44" transform="translate(-60.02 78.95) rotate(-68.33)"/><ellipse class="cls-3" cx="48.06" cy="83.7" rx="14.93" ry="7.44" transform="translate(-47.47 97.44) rotate(-68.33)"/></g><g id="__ovals-2"><ellipse class="cls-2" cx="27.5" cy="49.45" rx="14.93" ry="7.44" transform="translate(-28.61 56.75) rotate(-68.33)"/><ellipse class="cls-2" cx="47.41" cy="49.45" rx="14.93" ry="7.44" transform="translate(-16.06 75.24) rotate(-68.33)"/></g><g id="__oval"><ellipse class="cls-1" cx="48.06" cy="15.04" rx="14.93" ry="7.44" transform="translate(16.33 54.14) rotate(-68.33)"/></g></svg>